HIERARCHY
ROOT Root
{
  OFFSET 0.0 0.0 0.0
  CHANNELS 6 Xposition Yposition Zposition Zrotation Yrotation Xrotation
  JOINT Hips
  {
    OFFSET 0.0 100.0 0.0
    CHANNELS 6 Xposition Yposition Zposition Zrotation Yrotation Xrotation
    JOINT Spine1
    {
      OFFSET 5.003913 -0.037094 -0.013727
      CHANNELS 3 Zrotation Yrotation Xrotation
      JOINT Spine2
      {
        OFFSET 7.125363 -1e-06 0.0
        CHANNELS 3 Zrotation Yrotation Xrotation
        JOINT Chest
        {
          OFFSET 7.594027 1e-06 0.0
          CHANNELS 3 Zrotation Yrotation Xrotation
          JOINT Neck1
          {
            OFFSET 26.313086 -0.460272 -0.181672
            CHANNELS 3 Zrotation Yrotation Xrotation
            JOINT Neck2
            {
              OFFSET 8.045911 0.0 0.0
              CHANNELS 3 Zrotation Yrotation Xrotation
              JOINT Head
              {
                OFFSET 6.432774 0.0 0.0
                CHANNELS 3 Zrotation Yrotation Xrotation
                JOINT HeadEnd
                {
                  OFFSET 16.169773 0.06451 0.00362
                  CHANNELS 3 Zrotation Yrotation Xrotation
                }
                JOINT Jaw
                {
                  OFFSET 0.108741 3.12938 0.002639
                  CHANNELS 3 Zrotation Yrotation Xrotation
                }
                JOINT LeftEye
                {
                  OFFSET 4.45173 8.166359 3.206392
                  CHANNELS 3 Zrotation Yrotation Xrotation
                }
                JOINT RightEye
                {
                  OFFSET 4.436895 8.135758 -3.222429
                  CHANNELS 3 Zrotation Yrotation Xrotation
                }
              }
            }
          }
          JOINT LeftShoulder
          {
            OFFSET 23.218927 5.195579 1.621656
            CHANNELS 3 Zrotation Yrotation Xrotation
            JOINT LeftArm
            {
              OFFSET 15.902118 2e-06 -2e-06
              CHANNELS 3 Zrotation Yrotation Xrotation
              JOINT LeftForeArm
              {
                OFFSET 28.739307 0.0 -1e-06
                CHANNELS 3 Zrotation Yrotation Xrotation
                JOINT LeftHand
                {
                  OFFSET 27.093981 -4e-06 0.0
                  CHANNELS 3 Zrotation Yrotation Xrotation
                  JOINT LeftHandThumb1
                  {
                    OFFSET 2.276781 3.380274 0.83384
                    CHANNELS 3 Zrotation Yrotation Xrotation
                    JOINT LeftHandThumb2
                    {
                      OFFSET 4.705309 -1e-06 -1e-06
                      CHANNELS 3 Zrotation Yrotation Xrotation
                      JOINT LeftHandThumb3
                      {
                        OFFSET 2.798515 0.0 3e-06
                        CHANNELS 3 Zrotation Yrotation Xrotation
                        JOINT LeftHandThumbEnd
                        {
                          OFFSET 3.180793 4e-06 -4e-06
                          CHANNELS 3 Zrotation Yrotation Xrotation
                        }
                      }
                    }
                  }
                  JOINT LeftHandIndex1
                  {
                    OFFSET 3.247786 2.352677 0.137192
                    CHANNELS 3 Zrotation Yrotation Xrotation
                    JOINT LeftHandIndex2
                    {
                      OFFSET 6.367095 1e-06 0.0
                      CHANNELS 3 Zrotation Yrotation Xrotation
                      JOINT LeftHandIndex3
                      {
                        OFFSET 3.662364 0.0 0.0
                        CHANNELS 3 Zrotation Yrotation Xrotation
                        JOINT LeftHandIndex4
                        {
                          OFFSET 2.329242 4e-06 -4e-06
                          CHANNELS 3 Zrotation Yrotation Xrotation
                          JOINT LeftHandIndexEnd
                          {
                            OFFSET 2.767823 1e-06 0.0
                            CHANNELS 3 Zrotation Yrotation Xrotation
                          }
                        }
                      }
                    }
                  }
                  JOINT LeftHandMiddle1
                  {
                    OFFSET 3.163612 0.945023 -0.406112
                    CHANNELS 3 Zrotation Yrotation Xrotation
                    JOINT LeftHandMiddle2
                    {
                      OFFSET 6.276789 3e-06 0.0
                      CHANNELS 3 Zrotation Yrotation Xrotation
                      JOINT LeftHandMiddle3
                      {
                        OFFSET 4.35652 -1e-06 4e-06
                        CHANNELS 3 Zrotation Yrotation Xrotation
                        JOINT LeftHandMiddle4
                        {
                          OFFSET 2.996877 0.0 8e-06
                          CHANNELS 3 Zrotation Yrotation Xrotation
                          JOINT LeftHandMiddleEnd
                          {
                            OFFSET 2.323256 3e-06 -4e-06
                            CHANNELS 3 Zrotation Yrotation Xrotation
                          }
                        }
                      }
                    }
                  }
                  JOINT LeftHandRing1
                  {
                    OFFSET 2.882606 -0.309162 0.107445
                    CHANNELS 3 Zrotation Yrotation Xrotation
                    JOINT LeftHandRing2
                    {
                      OFFSET 6.033198 0.0 4e-06
                      CHANNELS 3 Zrotation Yrotation Xrotation
                      JOINT LeftHandRing3
                      {
                        OFFSET 4.350578 3e-06 0.0
                        CHANNELS 3 Zrotation Yrotation Xrotation
                        JOINT LeftHandRing4
                        {
                          OFFSET 2.651321 2e-06 -7e-06
                          CHANNELS 3 Zrotation Yrotation Xrotation
                          JOINT LeftHandRingEnd
                          {
                            OFFSET 1.937663 1e-06 -4e-06
                            CHANNELS 3 Zrotation Yrotation Xrotation
                          }
                        }
                      }
                    }
                  }
                  JOINT LeftHandPinky1
                  {
                    OFFSET 2.865315 -1.525436 0.575687
                    CHANNELS 3 Zrotation Yrotation Xrotation
                    JOINT LeftHandPinky2
                    {
                      OFFSET 5.54936 1e-06 -8e-06
                      CHANNELS 3 Zrotation Yrotation Xrotation
                      JOINT LeftHandPinky3
                      {
                        OFFSET 3.070974 0.0 -4e-06
                        CHANNELS 3 Zrotation Yrotation Xrotation
                        JOINT LeftHandPinky4
                        {
                          OFFSET 1.549672 1e-06 0.0
                          CHANNELS 3 Zrotation Yrotation Xrotation
                          JOINT LeftHandPinkyEnd
                          {
                            OFFSET 1.952123 0.0 0.0
                            CHANNELS 3 Zrotation Yrotation Xrotation
                          }
                        }
                      }
                    }
                  }
                }
              }
            }
          }
          JOINT RightShoulder
          {
            OFFSET 23.161716 5.296122 -1.380114
            CHANNELS 3 Zrotation Yrotation Xrotation
            JOINT RightArm
            {
              OFFSET -16.027195 -2e-06 1.1e-05
              CHANNELS 3 Zrotation Yrotation Xrotation
              JOINT RightForeArm
              {
                OFFSET -28.736639 4e-06 2e-06
                CHANNELS 3 Zrotation Yrotation Xrotation
                JOINT RightHand
                {
                  OFFSET -27.133619 6e-06 0.0
                  CHANNELS 3 Zrotation Yrotation Xrotation
                  JOINT RightHandThumb1
                  {
                    OFFSET -2.274328 -3.351035 -0.83067
                    CHANNELS 3 Zrotation Yrotation Xrotation
                    JOINT RightHandThumb2
                    {
                      OFFSET -4.703594 -3e-06 2e-06
                      CHANNELS 3 Zrotation Yrotation Xrotation
                      JOINT RightHandThumb3
                      {
                        OFFSET -2.794935 -4e-06 -3e-06
                        CHANNELS 3 Zrotation Yrotation Xrotation
                        JOINT RightHandThumbEnd
                        {
                          OFFSET -3.183852 4e-06 1e-06
                          CHANNELS 3 Zrotation Yrotation Xrotation
                        }
                      }
                    }
                  }
                  JOINT RightHandIndex1
                  {
                    OFFSET -3.253496 -2.33755 -0.127667
                    CHANNELS 3 Zrotation Yrotation Xrotation
                    JOINT RightHandIndex2
                    {
                      OFFSET -6.344434 0.0 0.0
                      CHANNELS 3 Zrotation Yrotation Xrotation
                      JOINT RightHandIndex3
                      {
                        OFFSET -3.654871 0.0 -8e-06
                        CHANNELS 3 Zrotation Yrotation Xrotation
                        JOINT RightHandIndex4
                        {
                          OFFSET -2.327586 -1e-06 0.0
                          CHANNELS 3 Zrotation Yrotation Xrotation
                          JOINT RightHandIndexEnd
                          {
                            OFFSET -2.770001 3e-06 8e-06
                            CHANNELS 3 Zrotation Yrotation Xrotation
                          }
                        }
                      }
                    }
                  }
                  JOINT RightHandMiddle1
                  {
                    OFFSET -3.168223 -0.944764 0.411762
                    CHANNELS 3 Zrotation Yrotation Xrotation
                    JOINT RightHandMiddle2
                    {
                      OFFSET -6.266691 -1e-06 -4e-06
                      CHANNELS 3 Zrotation Yrotation Xrotation
                      JOINT RightHandMiddle3
                      {
                        OFFSET -4.348901 0.0 0.0
                        CHANNELS 3 Zrotation Yrotation Xrotation
                        JOINT RightHandMiddle4
                        {
                          OFFSET -3.00024 2e-06 -4e-06
                          CHANNELS 3 Zrotation Yrotation Xrotation
                          JOINT RightHandMiddleEnd
                          {
                            OFFSET -2.321477 -4e-06 -4e-06
                            CHANNELS 3 Zrotation Yrotation Xrotation
                          }
                        }
                      }
                    }
                  }
                  JOINT RightHandRing1
                  {
                    OFFSET -2.885654 0.293261 -0.119232
                    CHANNELS 3 Zrotation Yrotation Xrotation
                    JOINT RightHandRing2
                    {
                      OFFSET -6.032835 -1e-06 -4e-06
                      CHANNELS 3 Zrotation Yrotation Xrotation
                      JOINT RightHandRing3
                      {
                        OFFSET -4.33881 0.0 -4e-06
                        CHANNELS 3 Zrotation Yrotation Xrotation
                        JOINT RightHandRing4
                        {
                          OFFSET -2.654903 -4e-06 -4e-06
                          CHANNELS 3 Zrotation Yrotation Xrotation
                          JOINT RightHandRingEnd
                          {
                            OFFSET -1.935122 0.0 4e-06
                            CHANNELS 3 Zrotation Yrotation Xrotation
                          }
                        }
                      }
                    }
                  }
                  JOINT RightHandPinky1
                  {
                    OFFSET -2.866241 1.503904 -0.60527
                    CHANNELS 3 Zrotation Yrotation Xrotation
                    JOINT RightHandPinky2
                    {
                      OFFSET -5.553177 -2e-06 0.0
                      CHANNELS 3 Zrotation Yrotation Xrotation
                      JOINT RightHandPinky3
                      {
                        OFFSET -3.062664 -1e-06 -4e-06
                        CHANNELS 3 Zrotation Yrotation Xrotation
                        JOINT RightHandPinky4
                        {
                          OFFSET -1.546529 2e-06 4e-06
                          CHANNELS 3 Zrotation Yrotation Xrotation
                          JOINT RightHandPinkyEnd
                          {
                            OFFSET -1.952341 0.0 -4e-06
                            CHANNELS 3 Zrotation Yrotation Xrotation
                          }
                        }
                      }
                    }
                  }
                }
              }
            }
          }
        }
      }
    }
    JOINT LeftLeg
    {
      OFFSET -8.443107 2.567604 10.043214
      CHANNELS 3 Zrotation Yrotation Xrotation
      JOINT LeftShin
      {
        OFFSET 43.229198 1e-06 -1e-06
        CHANNELS 3 Zrotation Yrotation Xrotation
        JOINT LeftFoot
        {
          OFFSET 42.298611 1e-06 1e-06
          CHANNELS 3 Zrotation Yrotation Xrotation
          JOINT LeftToeBase
          {
            OFFSET 14.165858 1e-06 0.0
            CHANNELS 3 Zrotation Yrotation Xrotation
            JOINT LeftToeEnd
            {
              OFFSET 6.7141 -0.234461 0.0
              CHANNELS 3 Zrotation Yrotation Xrotation
            }
          }
        }
      }
    }
    JOINT RightLeg
    {
      OFFSET -8.303923 2.592729 -10.047278
      CHANNELS 3 Zrotation Yrotation Xrotation
      JOINT RightShin
      {
        OFFSET -43.369682 0.0 1e-06
        CHANNELS 3 Zrotation Yrotation Xrotation
        JOINT RightFoot
        {
          OFFSET -42.260784 4e-06 2e-06
          CHANNELS 3 Zrotation Yrotation Xrotation
          JOINT RightToeBase
          {
            OFFSET -14.222245 -2e-06 -1e-06
            CHANNELS 3 Zrotation Yrotation Xrotation
            JOINT RightToeEnd
            {
              OFFSET -6.660062 0.232574 -2e-06
              CHANNELS 3 Zrotation Yrotation Xrotation
            }
          }
        }
      }
    }
  }
}
MOTION
Frames: 5
Frame Time: 0.03333333333333333
0.0 0.0 0.0 0.0 -0.0 0.0 0.042411 97.247604 3.801682 90.795509 0.547366 90.156128 -1.025669 0.700779 -0.581095 -10.785515 -0.608538 -1.377881 15.997502 6.040115 -1.48426 6.540307 13.844563 1.298446 -2.659 -0.829401 -4.670399 -39.011669 -2.50964 -7.344544 7e-06 -2e-06 0.0 0.040117 -0.055993 0.175624 0.026608 -0.108732 0.148437 0.048612 0.002737 0.185255 -113.161232 -76.920403 124.430229 14.714231 -42.298489 15.529489 63.779289 0.781825 0.625281 3.966678 17.436644 -1.739717 17.636627 -26.322723 52.411182 -19.466663 -14.395598 29.410389 1e-06 -8.774823 -1e-06 15.054832 -18.679443 6.792085 -0.609777 -1.795654 -3.889327 -4.80709 -11.046813 -2.93785 2e-06 -20.976015 1e-06 -5.019971 -25.033558 -4.031879 5e-06 -0.0 -2e-06 -10.634535 -5.68697 -3.565585 10.573272 -17.922945 -3.113901 0.0 -13.821209 2e-06 -0.501779 -31.181498 -4.027017 -11.345181 -58.216682 6.61826 -13.982712 -7.150198 -2.87504 13.772727 -8.401492 -3.218245 0.347733 -34.211544 0.771653 -0.963028 -17.733368 2.621017 -2e-06 -0.0 1e-06 -17.346422 -20.095217 -4.20178 21.757557 -1.638373 3.866423 0.0 -6.338823 1e-06 -1.697594 -22.591751 -6.194005 -2e-06 -5e-06 -2e-06 25.951294 -68.631454 165.521362 18.443819 -31.218409 -3.521362 107.682678 -0.924403 -0.417951 17.623928 4.151317 16.428091 22.182116 -20.375896 49.933319 -16.701817 -16.74353 28.47653 -2e-06 -12.690601 -1e-06 15.715731 -17.625134 2.565647 -0.10592 -1.513857 -4.275882 -5.039042 -5.612872 -2.953555 4e-06 -11.020523 -3e-06 -6.1113 -15.89533 -3.84047 1e-06 -1e-06 -1e-06 -10.283371 -5.68029 -4.341839 11.028293 -11.302402 -2.372633 -1.384268 -14.238583 -6.320121 -0.625441 -26.924187 -3.827602 -4.713087 -50.243488 -3.232606 -13.708527 -7.363478 -3.720942 18.14115 -14.052739 -3.242671 6e-06 -18.787271 -5e-06 -0.429714 -8.456042 2.555502 -1e-06 -1e-06 -1e-06 -15.923536 -20.094482 -5.473584 30.41921 -7.190823 1.735928 2e-06 -8.162929 -1e-06 -1.861906 -22.861469 -6.167938 0.0 -4e-06 -1e-06 -170.873779 -5.148083 -5.196157 31.65634 -0.263723 0.605324 -69.694702 17.011459 3.865232 -38.497288 2.506511 1.689944 -0.999999 -0.0 -0.0 -23.146975 -4.093361 -11.878425 28.692959 0.130816 0.033575 -74.022049 -4.851802 -1.09615 -9.859862 0.750858 1.561493 -1.000002 -0.0 -0.0 
0.0 0.0 0.0 0.0 -0.0 0.0 -0.835315 97.316093 6.131855 90.568062 0.339628 90.864105 -1.232829 0.754179 -0.635963 -10.887346 -0.640395 -1.617777 15.79733 6.11328 -1.733716 6.342046 14.29453 1.269139 -2.697352 -0.889332 -4.895154 -38.771816 -2.624522 -7.829776 4e-06 -0.0 0.0 0.019525 -0.073195 0.166235 0.050429 -0.139669 0.134745 0.071344 -0.001249 0.177645 -112.631683 -77.401482 123.726898 14.663371 -41.679714 15.410997 63.55862 0.959385 0.630576 4.193771 16.365013 -2.55337 17.636629 -26.322727 52.411179 -19.466658 -14.395598 29.410385 -0.0 -8.774819 -2e-06 15.053706 -18.530155 6.692526 -0.609778 -1.795655 -3.88933 -4.807088 -11.046811 -2.937851 -0.0 -20.976019 4e-06 -5.019975 -25.033562 -4.031876 6e-06 1e-06 -1e-06 -10.634535 -5.686973 -3.565585 10.573272 -17.922949 -3.113899 0.0 -13.821209 1e-06 -0.501779 -31.181505 -4.027014 -11.28366 -58.318321 6.621837 -13.982714 -7.1502 -2.875043 13.772731 -8.401489 -3.218242 0.34773 -34.211555 0.771652 -0.963031 -17.733368 2.621019 -2e-06 -0.0 1e-06 -17.346422 -20.095217 -4.20178 21.757559 -1.638375 3.866426 1e-06 -6.338823 1e-06 -1.697593 -22.591747 -6.194006 -3e-06 -6e-06 -3e-06 26.487268 -68.117989 165.147934 17.325609 -30.616781 -3.544147 107.716614 -1.049864 -0.512933 17.124931 4.04424 15.451652 22.182117 -20.375885 49.933315 -16.701811 -16.74353 28.476532 -3e-06 -12.690601 -0.0 15.868654 -17.651381 2.509449 -0.105921 -1.513855 -4.275883 -5.039042 -5.612872 -2.953555 4e-06 -11.020524 -3e-06 -6.111298 -15.895334 -3.840471 2e-06 -1e-06 -2e-06 -10.28337 -5.680288 -4.341839 11.028294 -11.302404 -2.372632 -1.384269 -14.238583 -6.320121 -0.625439 -26.924187 -3.827603 -4.757349 -50.144909 -3.156845 -13.708525 -7.363477 -3.720941 18.141151 -14.052737 -3.242674 9e-06 -18.78727 -5e-06 -0.429712 -8.456041 2.555504 0.0 -0.0 -1e-06 -15.923538 -20.094484 -5.473587 30.419218 -7.190824 1.735929 3e-06 -8.162927 -2e-06 -1.861902 -22.861469 -6.167945 1e-06 -3e-06 -1e-06 -168.336929 -6.146535 -5.273862 29.043289 -0.307023 0.706354 -65.382721 17.030785 4.994413 -40.340317 2.500571 1.677652 -0.999999 -0.0 0.0 -22.376898 -3.585513 -12.175071 30.172997 0.15502 -0.040802 -76.524429 -4.972923 -1.41064 -9.582377 0.751553 1.565466 -1.000002 0.0 0.0 
0.0 0.0 0.0 0.0 -0.0 0.0 -1.68436 97.265503 8.25441 90.356117 -0.081587 91.471329 -1.489862 0.742504 -0.649803 -10.985154 -0.714072 -1.876001 15.620561 6.171806 -1.961082 6.071574 14.490047 1.274371 -2.745086 -0.903038 -5.11102 -38.668991 -2.834245 -8.145018 4e-06 1e-06 -1e-06 0.018171 -0.080337 0.164239 0.068823 -0.15945 0.132193 0.08988 0.003638 0.17526 -112.951912 -77.791206 123.896889 14.715734 -40.852665 15.373149 63.672173 1.176876 0.593836 4.184992 15.411162 -3.126291 17.636627 -26.322725 52.411182 -19.466658 -14.395594 29.410381 1e-06 -8.774821 -2e-06 15.033202 -18.473232 6.675654 -0.609779 -1.795655 -3.889326 -4.807089 -11.046811 -2.93785 1e-06 -20.976017 2e-06 -5.019973 -25.033556 -4.031878 8e-06 0.0 0.0 -10.634534 -5.686972 -3.565589 10.573274 -17.922951 -3.113899 -0.0 -13.821209 -1e-06 -0.501778 -31.181505 -4.02702 -11.340827 -58.526627 6.706069 -13.982714 -7.150199 -2.87504 13.772728 -8.401489 -3.21824 0.347734 -34.211544 0.77165 -0.963031 -17.73337 2.621021 1e-06 -0.0 0.0 -17.346422 -20.095221 -4.201784 21.757559 -1.638372 3.86643 -0.0 -6.338825 2e-06 -1.697592 -22.591745 -6.194007 -2e-06 -5e-06 -1e-06 26.837061 -67.587151 164.914551 16.067572 -30.058123 -3.251381 107.807709 -0.962141 -0.576433 16.563963 4.12888 15.163882 22.182116 -20.375887 49.933319 -16.701817 -16.74353 28.47653 -3e-06 -12.690601 -1e-06 15.964541 -17.704048 2.47992 -0.105918 -1.513856 -4.275883 -5.039044 -5.61287 -2.953553 3e-06 -11.020521 -3e-06 -6.111296 -15.895332 -3.840472 3e-06 -2e-06 -2e-06 -10.283373 -5.680287 -4.34184 11.028296 -11.302406 -2.372633 -1.384269 -14.238581 -6.320121 -0.625435 -26.924191 -3.827602 -4.880546 -50.108505 -3.068849 -13.708524 -7.363476 -3.720941 18.141146 -14.052739 -3.242676 1.1e-05 -18.787271 -6e-06 -0.42971 -8.456047 2.555506 -1e-06 -0.0 -1e-06 -15.923534 -20.094484 -5.473585 30.41921 -7.190822 1.735926 4e-06 -8.162927 -2e-06 -1.861904 -22.861467 -6.167942 0.0 -3e-06 -1e-06 -166.300644 -7.176522 -5.693033 26.742739 -0.332423 0.818768 -61.29612 16.736444 6.038034 -41.894104 2.473664 1.66715 -0.999998 -0.0 -0.0 -22.035652 -3.09865 -12.529025 31.70121 0.189319 -0.102944 -78.882202 -4.99781 -1.499679 -9.252339 0.725655 1.56556 -1.000001 -0.0 -0.0 
0.0 0.0 0.0 0.0 -0.0 0.0 -2.581451 97.137253 10.260118 90.083374 -0.630567 91.999969 -1.716015 0.722323 -0.665014 -11.079304 -0.778655 -2.080305 15.468292 6.210926 -2.191659 5.759464 14.448442 1.335055 -2.760383 -0.913872 -5.289041 -38.758297 -2.980755 -8.256625 4e-06 -0.0 -1e-06 0.027626 -0.076348 0.167743 0.085132 -0.161683 0.135355 0.119397 0.012525 0.17911 -113.874794 -78.073669 124.624588 14.885019 -39.952381 15.146646 64.000969 1.144875 0.411307 4.180501 14.861031 -3.155637 17.636627 -26.322725 52.411179 -19.466661 -14.395597 29.410393 -0.0 -8.774819 -2e-06 15.001758 -18.419218 6.674384 -0.609777 -1.795654 -3.889327 -4.807087 -11.046809 -2.93785 4e-06 -20.976019 2e-06 -5.019969 -25.033558 -4.031878 5e-06 1e-06 0.0 -10.634534 -5.686968 -3.565585 10.573274 -17.922947 -3.113901 1e-06 -13.821206 2e-06 -0.501778 -31.181501 -4.027012 -11.351194 -58.669018 6.761087 -13.982711 -7.150198 -2.87504 13.772727 -8.401489 -3.218244 0.347734 -34.211544 0.771653 -0.963029 -17.733372 2.621019 1e-06 -1e-06 -0.0 -17.346413 -20.095215 -4.201784 21.757555 -1.638376 3.866426 1e-06 -6.338823 1e-06 -1.697589 -22.591743 -6.194009 -2e-06 -4e-06 -3e-06 27.109409 -67.095337 164.757462 14.723407 -29.718771 -2.805495 107.915108 -0.768177 -0.529173 15.905437 4.415795 15.396121 22.182114 -20.375893 49.933308 -16.701817 -16.743525 28.47653 -4e-06 -12.690598 1e-06 16.015459 -17.757057 2.438102 -0.105921 -1.513858 -4.27588 -5.03904 -5.61287 -2.95356 2e-06 -11.020524 -0.0 -6.111294 -15.895334 -3.840469 1e-06 -2e-06 -1e-06 -10.283369 -5.680289 -4.341838 11.028292 -11.302406 -2.372635 -1.384269 -14.238577 -6.320122 -0.625437 -26.924185 -3.827602 -5.020638 -50.121677 -2.998021 -13.70852 -7.363475 -3.720942 18.141142 -14.052739 -3.242673 9e-06 -18.78727 -2e-06 -0.429711 -8.456043 2.555503 -1e-06 1e-06 -1e-06 -15.923532 -20.094486 -5.473587 30.419205 -7.190826 1.735927 6e-06 -8.162926 -1e-06 -1.861902 -22.861467 -6.167944 0.0 -3e-06 0.0 -164.583755 -8.34884 -6.460494 24.716894 -0.349966 0.945918 -57.108715 16.354261 6.740528 -43.068184 2.449119 1.65772 -0.999999 -1e-06 -0.0 -21.90451 -2.425515 -12.751667 33.132542 0.208533 -0.158886 -81.102341 -5.169602 -1.406482 -9.015587 0.698405 1.563776 -1.000002 0.0 -0.0 
0.0 0.0 0.0 0.0 -0.0 0.0 -3.475642 96.981667 12.111581 89.755783 -1.190231 92.429184 -1.885775 0.696474 -0.677856 -11.145996 -0.823799 -2.251751 15.348754 6.218425 -2.455556 5.428602 14.205142 1.437608 -2.753901 -0.903496 -5.364422 -38.943302 -3.103849 -8.218172 4e-06 -1e-06 -2e-06 0.03464 -0.065871 0.168576 0.105337 -0.155352 0.134887 0.151855 0.025862 0.181164 -114.567329 -78.328484 125.187454 15.185861 -39.261185 14.65877 64.461342 1.008392 0.27718 4.205276 14.616194 -2.846081 17.636616 -26.322725 52.411194 -19.466654 -14.395597 29.410389 1e-06 -8.774821 -2e-06 14.985297 -18.415627 6.685144 -0.609778 -1.795653 -3.889324 -4.807092 -11.04681 -2.937852 2e-06 -20.976011 2e-06 -5.01997 -25.033552 -4.031882 5e-06 0.0 0.0 -10.634531 -5.686971 -3.565588 10.573265 -17.922945 -3.113897 0.0 -13.821206 0.0 -0.501781 -31.181498 -4.027017 -11.389475 -58.796673 6.840331 -13.982712 -7.150198 -2.87504 13.772726 -8.401489 -3.218241 0.347729 -34.211544 0.771655 -0.963032 -17.733366 2.621021 1e-06 -1e-06 0.0 -17.346416 -20.095213 -4.20178 21.757557 -1.638371 3.866427 1e-06 -6.338821 1e-06 -1.697592 -22.591743 -6.194008 -2e-06 -3e-06 -2e-06 27.227425 -66.644188 164.781998 13.349711 -29.706856 -2.381568 108.029045 -0.586674 -0.422051 15.184894 4.781647 15.687213 22.182121 -20.375887 49.933315 -16.701813 -16.743528 28.476521 -2e-06 -12.690601 -1e-06 16.066683 -17.800175 2.390211 -0.105918 -1.513856 -4.275879 -5.039042 -5.612871 -2.95356 3e-06 -11.020524 -3e-06 -6.1113 -15.895334 -3.840469 2e-06 -2e-06 -1e-06 -10.283371 -5.68029 -4.341837 11.028293 -11.302404 -2.372632 -1.384269 -14.238583 -6.32012 -0.625438 -26.924191 -3.827603 -5.13195 -50.147293 -2.986323 -13.708526 -7.363477 -3.720938 18.14115 -14.052738 -3.242675 8e-06 -18.78727 -3e-06 -0.429711 -8.456046 2.555502 -0.0 1e-06 -0.0 -15.923538 -20.094486 -5.473585 30.419214 -7.190825 1.73593 3e-06 -8.162925 -0.0 -1.861902 -22.861471 -6.167946 1e-06 -5e-06 -2e-06 -163.136581 -9.575437 -7.450002 23.101263 -0.373066 1.089095 -52.799847 15.729836 7.251258 -43.921257 2.417826 1.650203 -1.0 1e-06 0.0 -21.78343 -1.593309 -12.854824 34.268993 0.223417 -0.216204 -83.109665 -5.394766 -1.207781 -8.846049 0.686113 1.562145 -1.000002 -0.0 0.0 
